<svg width="20" height="20" viewBox="0 0 20 20" fill="none" xmlns="http://www.w3.org/2000/svg">
<path d="M4.99999 18.3333H2.49999C2.05797 18.3333 1.63404 18.1577 1.32148 17.8452C1.00892 17.5326 0.833328 17.1087 0.833328 16.6667V10.8333C0.833328 10.3913 1.00892 9.96738 1.32148 9.65482C1.63404 9.34226 2.05797 9.16666 2.49999 9.16666H4.99999M10.8333 7.5V4.16666C10.8333 3.50362 10.5699 2.86774 10.1011 2.3989C9.63225 1.93006 8.99637 1.66666 8.33333 1.66666L4.99999 9.16666V18.3333H14.4C14.8019 18.3379 15.192 18.197 15.4982 17.9367C15.8045 17.6763 16.0064 17.3141 16.0667 16.9167L17.2167 9.41666C17.2529 9.17779 17.2368 8.9339 17.1694 8.70187C17.1021 8.46985 16.9851 8.25524 16.8265 8.07293C16.668 7.89061 16.4717 7.74494 16.2513 7.64601C16.0309 7.54708 15.7916 7.49726 15.55 7.5H10.8333Z" stroke="#050F19" stroke-width="1.5" stroke-linecap="round" stroke-linejoin="round"/>
</svg>
